<svg width="199" height="30" viewBox="0 0 199 30" fill="none" xmlns="http://www.w3.org/2000/svg">
<path d="M7.42399 23.744V4.86402H-5.97537e-06V1.34402H19.008V4.86402H11.584V23.744H7.42399ZM27.676 23.968C25.9267 23.968 24.3693 23.5947 23.004 22.848C21.6387 22.08 20.5613 21.0347 19.772 19.712C18.9827 18.3894 18.588 16.8854 18.588 15.2C18.588 13.4934 18.9827 11.9894 19.772 10.688C20.5613 9.36535 21.6387 8.33068 23.004 7.58402C24.3693 6.83735 25.9267 6.46402 27.676 6.46402C29.4467 6.46402 31.0147 6.83735 32.38 7.58402C33.7667 8.33068 34.844 9.35468 35.612 10.656C36.4013 11.9574 36.796 13.472 36.796 15.2C36.796 16.8854 36.4013 18.3894 35.612 19.712C34.844 21.0347 33.7667 22.08 32.38 22.848C31.0147 23.5947 29.4467 23.968 27.676 23.968ZM27.676 20.544C28.6573 20.544 29.532 20.3307 30.3 19.904C31.068 19.4774 31.6653 18.8587 32.092 18.048C32.54 17.2374 32.764 16.288 32.764 15.2C32.764 14.0907 32.54 13.1414 32.092 12.352C31.6653 11.5414 31.068 10.9227 30.3 10.496C29.532 10.0694 28.668 9.85602 27.708 9.85602C26.7267 9.85602 25.852 10.0694 25.084 10.496C24.3373 10.9227 23.74 11.5414 23.292 12.352C22.844 13.1414 22.62 14.0907 22.62 15.2C22.62 16.288 22.844 17.2374 23.292 18.048C23.74 18.8587 24.3373 19.4774 25.084 19.904C25.852 20.3307 26.716 20.544 27.676 20.544ZM47.853 23.968C46.4023 23.968 45.1223 23.7014 44.013 23.168C42.9037 22.6134 42.0397 21.7814 41.421 20.672C40.8023 19.5414 40.493 18.1227 40.493 16.416V6.65602H44.493V15.872C44.493 17.408 44.8343 18.56 45.517 19.328C46.221 20.0747 47.213 20.448 48.493 20.448C49.4317 20.448 50.2423 20.256 50.925 19.872C51.629 19.488 52.173 18.912 52.557 18.144C52.9623 17.376 53.165 16.4267 53.165 15.296V6.65602H57.165V23.744H53.357V19.136L54.029 20.544C53.453 21.6534 52.6103 22.5067 51.501 23.104C50.3917 23.68 49.1757 23.968 47.853 23.968ZM70.2422 23.968C68.4502 23.968 66.8502 23.5947 65.4422 22.848C64.0556 22.08 62.9676 21.0347 62.1782 19.712C61.3889 18.3894 60.9942 16.8854 60.9942 15.2C60.9942 13.4934 61.3889 11.9894 62.1782 10.688C62.9676 9.36535 64.0556 8.33068 65.4422 7.58402C66.8502 6.83735 68.4502 6.46402 70.2422 6.46402C71.9062 6.46402 73.3676 6.80535 74.6262 7.48802C75.9062 8.14935 76.8769 9.13068 77.5382 10.432L74.4662 12.224C73.9542 11.4134 73.3249 10.816 72.5782 10.432C71.8529 10.048 71.0636 9.85602 70.2102 9.85602C69.2289 9.85602 68.3436 10.0694 67.5542 10.496C66.7649 10.9227 66.1462 11.5414 65.6982 12.352C65.2502 13.1414 65.0262 14.0907 65.0262 15.2C65.0262 16.3094 65.2502 17.2694 65.6982 18.08C66.1462 18.8694 66.7649 19.4774 67.5542 19.904C68.3436 20.3307 69.2289 20.544 70.2102 20.544C71.0636 20.544 71.8529 20.352 72.5782 19.968C73.3249 19.584 73.9542 18.9867 74.4662 18.176L77.5382 19.968C76.8769 21.248 75.9062 22.24 74.6262 22.944C73.3676 23.6267 71.9062 23.968 70.2422 23.968ZM90.5357 6.46402C91.9011 6.46402 93.1171 6.73068 94.1837 7.26402C95.2717 7.79735 96.1251 8.61868 96.7437 9.72802C97.3624 10.816 97.6717 12.224 97.6717 13.952V23.744H93.6717V14.464C93.6717 12.9494 93.3091 11.8187 92.5837 11.072C91.8797 10.3254 90.8877 9.95202 89.6077 9.95202C88.6691 9.95202 87.8371 10.144 87.1117 10.528C86.3864 10.912 85.8211 11.488 85.4157 12.256C85.0317 13.0027 84.8397 13.952 84.8397 15.104V23.744H80.8397V1.71661e-05H84.8397V11.264L83.9757 9.85602C84.5731 8.76802 85.4371 7.93602 86.5677 7.36002C87.7197 6.76268 89.0424 6.46402 90.5357 6.46402Z" fill="#1E1E1E"/>
<path d="M110.074 24.064C108.325 24.064 106.65 23.8187 105.05 23.328C103.45 22.816 102.181 22.1654 101.242 21.376L102.682 18.144C103.578 18.848 104.687 19.4347 106.01 19.904C107.333 20.3734 108.687 20.608 110.074 20.608C111.247 20.608 112.197 20.48 112.922 20.224C113.647 19.968 114.181 19.6267 114.522 19.2C114.863 18.752 115.034 18.2507 115.034 17.696C115.034 17.0134 114.789 16.4694 114.298 16.064C113.807 15.6374 113.167 15.3067 112.378 15.072C111.61 14.816 110.746 14.5814 109.786 14.368C108.847 14.1547 107.898 13.9094 106.938 13.632C105.999 13.3334 105.135 12.96 104.346 12.512C103.578 12.0427 102.949 11.424 102.458 10.656C101.967 9.88802 101.722 8.90668 101.722 7.71202C101.722 6.49602 102.042 5.38668 102.682 4.38402C103.343 3.36002 104.335 2.54935 105.658 1.95202C107.002 1.33335 108.698 1.02402 110.746 1.02402C112.09 1.02402 113.423 1.19468 114.746 1.53602C116.069 1.87735 117.221 2.36802 118.202 3.00802L116.89 6.24002C115.887 5.64268 114.853 5.20535 113.786 4.92802C112.719 4.62935 111.695 4.48002 110.714 4.48002C109.562 4.48002 108.623 4.61868 107.898 4.89602C107.194 5.17335 106.671 5.53602 106.33 5.98402C106.01 6.43202 105.85 6.94402 105.85 7.52002C105.85 8.20268 106.085 8.75735 106.554 9.18402C107.045 9.58935 107.674 9.90935 108.442 10.144C109.231 10.3787 110.106 10.6134 111.066 10.848C112.026 11.0614 112.975 11.3067 113.914 11.584C114.874 11.8614 115.738 12.224 116.506 12.672C117.295 13.12 117.925 13.728 118.394 14.496C118.885 15.264 119.13 16.2347 119.13 17.408C119.13 18.6027 118.799 19.712 118.138 20.736C117.498 21.7387 116.506 22.5494 115.162 23.168C113.818 23.7654 112.122 24.064 110.074 24.064ZM132.343 23.968C130.956 23.968 129.687 23.648 128.535 23.008C127.404 22.368 126.498 21.408 125.815 20.128C125.154 18.8267 124.823 17.184 124.823 15.2C124.823 13.1947 125.143 11.552 125.783 10.272C126.444 8.99202 127.34 8.04268 128.471 7.42402C129.602 6.78402 130.892 6.46402 132.343 6.46402C134.028 6.46402 135.511 6.82668 136.791 7.55202C138.092 8.27735 139.116 9.29068 139.863 10.592C140.631 11.8934 141.015 13.4294 141.015 15.2C141.015 16.9707 140.631 18.5174 139.863 19.84C139.116 21.1414 138.092 22.1547 136.791 22.88C135.511 23.6054 134.028 23.968 132.343 23.968ZM122.871 29.952V6.65602H126.679V10.688L126.551 15.232L126.871 19.776V29.952H122.871ZM131.895 20.544C132.855 20.544 133.708 20.3307 134.455 19.904C135.223 19.4774 135.831 18.8587 136.279 18.048C136.727 17.2374 136.951 16.288 136.951 15.2C136.951 14.0907 136.727 13.1414 136.279 12.352C135.831 11.5414 135.223 10.9227 134.455 10.496C133.708 10.0694 132.855 9.85602 131.895 9.85602C130.935 9.85602 130.071 10.0694 129.303 10.496C128.535 10.9227 127.927 11.5414 127.479 12.352C127.031 13.1414 126.807 14.0907 126.807 15.2C126.807 16.288 127.031 17.2374 127.479 18.048C127.927 18.8587 128.535 19.4774 129.303 19.904C130.071 20.3307 130.935 20.544 131.895 20.544ZM155.118 23.744V20.288L154.894 19.552V13.504C154.894 12.3307 154.542 11.424 153.838 10.784C153.134 10.1227 152.067 9.79202 150.638 9.79202C149.678 9.79202 148.728 9.94135 147.79 10.24C146.872 10.5387 146.094 10.9547 145.454 11.488L143.886 8.57602C144.803 7.87202 145.891 7.34935 147.15 7.00802C148.43 6.64535 149.752 6.46402 151.118 6.46402C153.592 6.46402 155.502 7.06135 156.846 8.25602C158.211 9.42935 158.894 11.2534 158.894 13.728V23.744H155.118ZM149.742 23.968C148.462 23.968 147.342 23.7547 146.382 23.328C145.422 22.88 144.675 22.272 144.142 21.504C143.63 20.7147 143.374 19.8294 143.374 18.848C143.374 17.888 143.598 17.024 144.046 16.256C144.515 15.488 145.272 14.88 146.318 14.432C147.363 13.984 148.75 13.76 150.478 13.76H155.438V16.416H150.766C149.4 16.416 148.483 16.64 148.014 17.088C147.544 17.5147 147.31 18.048 147.31 18.688C147.31 19.4134 147.598 19.9894 148.174 20.416C148.75 20.8427 149.55 21.056 150.574 21.056C151.555 21.056 152.43 20.832 153.198 20.384C153.987 19.936 154.552 19.2747 154.894 18.4L155.566 20.8C155.182 21.8027 154.488 22.5814 153.486 23.136C152.504 23.6907 151.256 23.968 149.742 23.968ZM171.898 23.968C170.106 23.968 168.506 23.5947 167.098 22.848C165.712 22.08 164.624 21.0347 163.834 19.712C163.045 18.3894 162.65 16.8854 162.65 15.2C162.65 13.4934 163.045 11.9894 163.834 10.688C164.624 9.36535 165.712 8.33068 167.098 7.58402C168.506 6.83735 170.106 6.46402 171.898 6.46402C173.562 6.46402 175.024 6.80535 176.282 7.48802C177.562 8.14935 178.533 9.13068 179.194 10.432L176.122 12.224C175.61 11.4134 174.981 10.816 174.234 10.432C173.509 10.048 172.72 9.85602 171.866 9.85602C170.885 9.85602 170 10.0694 169.21 10.496C168.421 10.9227 167.802 11.5414 167.354 12.352C166.906 13.1414 166.682 14.0907 166.682 15.2C166.682 16.3094 166.906 17.2694 167.354 18.08C167.802 18.8694 168.421 19.4774 169.21 19.904C170 20.3307 170.885 20.544 171.866 20.544C172.72 20.544 173.509 20.352 174.234 19.968C174.981 19.584 175.61 18.9867 176.122 18.176L179.194 19.968C178.533 21.248 177.562 22.24 176.282 22.944C175.024 23.6267 173.562 23.968 171.898 23.968ZM190.434 23.968C188.536 23.968 186.872 23.5947 185.442 22.848C184.034 22.08 182.936 21.0347 182.146 19.712C181.378 18.3894 180.994 16.8854 180.994 15.2C180.994 13.4934 181.368 11.9894 182.114 10.688C182.882 9.36535 183.928 8.33068 185.25 7.58402C186.594 6.83735 188.12 6.46402 189.826 6.46402C191.49 6.46402 192.973 6.82668 194.274 7.55202C195.576 8.27735 196.6 9.30135 197.346 10.624C198.093 11.9467 198.466 13.504 198.466 15.296C198.466 15.4667 198.456 15.6587 198.434 15.872C198.434 16.0854 198.424 16.288 198.402 16.48H184.162V13.824H196.29L194.722 14.656C194.744 13.6747 194.541 12.8107 194.114 12.064C193.688 11.3174 193.101 10.7307 192.354 10.304C191.629 9.87735 190.786 9.66402 189.826 9.66402C188.845 9.66402 187.981 9.87735 187.234 10.304C186.509 10.7307 185.933 11.328 185.506 12.096C185.101 12.8427 184.898 13.728 184.898 14.752V15.392C184.898 16.416 185.133 17.3227 185.602 18.112C186.072 18.9014 186.733 19.5094 187.586 19.936C188.44 20.3627 189.421 20.576 190.53 20.576C191.49 20.576 192.354 20.4267 193.122 20.128C193.89 19.8294 194.573 19.36 195.17 18.72L197.314 21.184C196.546 22.08 195.576 22.7734 194.402 23.264C193.25 23.7334 191.928 23.968 190.434 23.968Z" fill="#0A84FF"/>
</svg>
