<svg width="22" height="22" viewBox="0 0 22 22" fill="none" xmlns="http://www.w3.org/2000/svg">
<path fill-rule="evenodd" clip-rule="evenodd" d="M15.3599 20.6858H6.12895C2.73818 20.6858 0.136906 19.5371 0.87579 14.914L1.73613 8.64845C2.19161 6.34161 3.76048 5.45874 5.13703 5.45874H16.3924C17.7892 5.45874 19.2669 6.40806 19.7933 8.64845L20.6536 14.914C21.2811 19.015 18.7507 20.6858 15.3599 20.6858Z" stroke="white" stroke-width="1.5" stroke-linecap="round" stroke-linejoin="round"/>
<path d="M15.5121 5.23082C15.5121 2.75616 13.3732 0.75004 10.7347 0.75004V0.75004C9.46414 0.744991 8.24377 1.21484 7.34344 2.0557C6.44311 2.89656 5.937 4.03915 5.93701 5.23082H5.93701" stroke="white" stroke-width="1.5" stroke-linecap="round" stroke-linejoin="round"/>
<path d="M14.0138 9.90182H13.9632" stroke="white" stroke-width="1.5" stroke-linecap="round" stroke-linejoin="round"/>
<path d="M7.56606 9.90182H7.51545" stroke="white" stroke-width="1.5" stroke-linecap="round" stroke-linejoin="round"/>
</svg>
