<svg width="20" height="21" viewBox="0 0 20 21" fill="none" xmlns="http://www.w3.org/2000/svg">
<path fill-rule="evenodd" clip-rule="evenodd" d="M17.9909 0.241653C14.4004 2.3775 4.57722 8.3218 1.00024 10.449C0.518459 10.7357 -0.0234473 11.888 0.000784101 12.4905C0.0257282 13.0922 0.497791 13.274 1.00024 13.5112L5.9975 15.5527V18.6149C5.99251 19.2645 6.44746 20.4191 6.99695 20.6564C7.54572 20.8944 7.59801 21.1355 7.9964 20.6564L9.9953 17.5941L14.9926 19.6356C15.3831 19.7786 16.6373 19.8673 16.9915 19.6356C17.3464 19.4047 16.9166 19.0618 16.9915 18.6149L19.9898 2.28312C20.0896 1.68848 19.4337 0.598281 18.9904 0.241653C18.5464 -0.11419 18.4734 -0.0450636 17.9909 0.241653ZM17.9909 3.30386L15.992 17.5941L9.9953 15.5527C9.72876 15.4553 9.18543 16.3456 8.99585 16.5734L6.99695 18.6149V15.5527L17.9909 3.30386ZM1.00024 12.4905L5.9975 14.5319L15.992 3.30386L1.00024 12.4905Z" fill="#F5F5F7"/>
</svg>
