<svg width="24" height="22" viewBox="0 0 24 22" fill="none" xmlns="http://www.w3.org/2000/svg">
<path fill-rule="evenodd" clip-rule="evenodd" d="M1.17772 10.2739C-0.0648936 6.56327 1.38733 2.3221 5.46026 1.06714C7.6027 0.405879 9.96748 0.79577 11.7486 2.07731C13.4336 0.831214 15.8852 0.41031 18.0253 1.06714C22.0983 2.3221 23.5598 6.56327 22.3183 10.2739C20.3843 16.1555 11.7486 20.6857 11.7486 20.6857C11.7486 20.6857 3.17655 16.2241 1.17772 10.2739Z" stroke="white" stroke-width="1.5" stroke-linecap="round" stroke-linejoin="round"/>
<path d="M15.7471 10.7179C16.8757 10.5802 17.7446 9.74021 17.7471 8.72253C17.7471 7.7196 16.9048 6.88804 15.8005 6.73071" stroke="white" stroke-width="0.961889" stroke-linecap="round" stroke-linejoin="round"/>
<path d="M17.7471 12.7114C18.336 12.8443 18.7471 13.1554 18.7471 13.7967C18.7471 14.238 18.5535 14.5248 18.2405 14.705" stroke="white" stroke-width="0.961889" stroke-linecap="round" stroke-linejoin="round"/>
<path fill-rule="evenodd" clip-rule="evenodd" d="M11.7474 13.7083C9.58982 13.7083 7.74707 14.2059 7.74707 16.1936C7.74707 18.1802 9.5784 18.6922 11.7474 18.6922C13.905 18.6922 15.7471 18.1996 15.7471 16.2109C15.7471 14.2223 13.9164 13.7083 11.7474 13.7083Z" stroke="white" stroke-width="0.961889" stroke-linecap="round" stroke-linejoin="round"/>
<path fill-rule="evenodd" clip-rule="evenodd" d="M11.7471 10.75C13.4038 10.75 14.7471 9.63125 14.7471 8.25C14.7471 6.8694 13.4038 5.75 11.7471 5.75C10.0904 5.75 8.74709 6.8694 8.74709 8.25C8.74081 9.62601 10.0739 10.7454 11.7251 10.75H11.7471Z" stroke="white" stroke-width="0.961889" stroke-linecap="round" stroke-linejoin="round"/>
<path d="M7.74707 10.7179C6.61762 10.5802 5.7495 9.74021 5.74707 8.72253C5.74707 7.7196 6.5893 6.88804 7.69367 6.73071" stroke="white" stroke-width="0.961889" stroke-linecap="round" stroke-linejoin="round"/>
<path d="M5.74707 12.7114C5.15814 12.8443 4.74707 13.1554 4.74707 13.7967C4.74707 14.238 4.94062 14.5248 5.25361 14.705" stroke="white" stroke-width="0.961889" stroke-linecap="round" stroke-linejoin="round"/>
</svg>
