<svg width="22" height="22" viewBox="0 0 22 22" fill="none" xmlns="http://www.w3.org/2000/svg">
<path d="M0.75 0.750244L2.99865 1.14937L4.03974 13.8694C4.12298 14.9082 4.96947 15.7054 5.98569 15.702H17.7792C18.749 15.7042 19.5717 14.9725 19.709 13.988L20.7349 6.71721C20.8495 5.90454 20.2992 5.15063 19.5079 5.03311C19.4387 5.02313 3.35973 5.01759 3.35973 5.01759" stroke="#1E1E1E" stroke-width="1.5" stroke-linecap="round" stroke-linejoin="round"/>
<path d="M12.75 9.22343H15.75" stroke="#1E1E1E" stroke-width="1.5" stroke-linecap="round" stroke-linejoin="round"/>
<path fill-rule="evenodd" clip-rule="evenodd" d="M5.25 19.6892C5.52665 19.6892 5.75 19.9127 5.75 20.1876C5.75 20.4633 5.52665 20.6868 5.25 20.6868C4.97335 20.6868 4.75 20.4633 4.75 20.1876C4.75 19.9127 4.97335 19.6892 5.25 19.6892Z" stroke="#1E1E1E" stroke-width="1.5" stroke-linecap="round" stroke-linejoin="round"/>
<path fill-rule="evenodd" clip-rule="evenodd" d="M17.2495 19.6892C17.5259 19.6892 17.75 19.9127 17.75 20.1876C17.75 20.4633 17.5259 20.6868 17.2495 20.6868C16.9731 20.6868 16.75 20.4633 16.75 20.1876C16.75 19.9127 16.9731 19.6892 17.2495 19.6892Z" stroke="#1E1E1E" stroke-width="1.5" stroke-linecap="round" stroke-linejoin="round"/>
</svg>
