<svg width="21" height="22" viewBox="0 0 21 22" fill="none" xmlns="http://www.w3.org/2000/svg">
<path fill-rule="evenodd" clip-rule="evenodd" d="M19.474 6.29403L18.8091 5.17383C18.2466 4.22598 17.0001 3.89899 16.0225 4.44286V4.44286C15.5572 4.70901 15.0019 4.78453 14.4792 4.65274C13.9564 4.52096 13.5091 4.1927 13.2359 3.74036C13.0602 3.45284 12.9657 3.12536 12.9621 2.79104V2.79104C12.978 2.25503 12.7697 1.73561 12.3847 1.35112C11.9998 0.966616 11.4709 0.749779 10.9186 0.75H9.5791C9.03802 0.749994 8.51924 0.959333 8.13756 1.3317C7.75588 1.70406 7.54276 2.20874 7.54536 2.73408V2.73408C7.52932 3.81872 6.61909 4.68979 5.50185 4.68968C5.15751 4.68621 4.82022 4.59451 4.52409 4.42387V4.42387C3.5465 3.88 2.29996 4.20699 1.73748 5.15485L1.02371 6.29403C0.461909 7.24071 0.794109 8.45022 1.76681 8.9996V8.9996C2.39908 9.35402 2.78858 10.009 2.78858 10.7179C2.78858 11.4267 2.39908 12.0817 1.76681 12.4361V12.4361C0.795344 12.9818 0.462782 14.1884 1.02371 15.1322V15.1322L1.69837 16.2619C1.96192 16.7236 2.4041 17.0643 2.92708 17.2086C3.45006 17.3529 4.01072 17.289 4.48498 17.0308V17.0308C4.9512 16.7667 5.50678 16.6943 6.02823 16.8298C6.54967 16.9653 6.99377 17.2974 7.26181 17.7523C7.43756 18.0398 7.53201 18.3673 7.53558 18.7017V18.7017C7.53558 19.7974 8.45049 20.6857 9.5791 20.6857H10.9186C12.0434 20.6857 12.9568 19.8032 12.9621 18.7111V18.7111C12.9595 18.1842 13.174 17.678 13.5578 17.3054C13.9416 16.9327 14.4629 16.7245 15.0057 16.7271C15.3492 16.736 15.6851 16.8273 15.9834 16.9929V16.9929C16.9584 17.5383 18.2042 17.2158 18.77 16.2714V16.2714L19.474 15.1322C19.7465 14.6781 19.8213 14.1372 19.6818 13.6294C19.5423 13.1216 19.2001 12.6887 18.7309 12.4266V12.4266C18.2617 12.1646 17.9195 11.7317 17.78 11.2239C17.6405 10.716 17.7153 10.1752 17.9878 9.72108C18.165 9.4207 18.4215 9.17164 18.7309 8.9996V8.9996C19.6978 8.45052 20.0292 7.24807 19.474 6.30352V6.30352V6.29403Z" stroke="white" stroke-width="1.5" stroke-linecap="round" stroke-linejoin="round"/>
<ellipse cx="10.2505" cy="10.2195" rx="2.5" ry="2.49197" stroke="white" stroke-width="1.5" stroke-linecap="round" stroke-linejoin="round"/>
</svg>
