<svg width="20" height="20" viewBox="0 0 20 20" fill="none" xmlns="http://www.w3.org/2000/svg">
<path fill-rule="evenodd" clip-rule="evenodd" d="M14.334 0.75H5.665C2.644 0.75 0.75 2.88213 0.75 5.8994V14.0412C0.75 17.0584 2.635 19.1905 5.665 19.1905H14.333C17.364 19.1905 19.25 17.0584 19.25 14.0412V5.8994C19.25 2.88213 17.364 0.75 14.334 0.75Z" stroke="white" stroke-width="1.5" stroke-linecap="round" stroke-linejoin="round"/>
<path fill-rule="evenodd" clip-rule="evenodd" d="M8.68886 9.97032C8.68886 10.99 7.85986 11.8164 6.83686 11.8164C5.81386 11.8164 4.98486 10.99 4.98486 9.97032C4.98486 8.9506 5.81386 8.12427 6.83686 8.12427H6.83986C7.86086 8.12526 8.68886 8.9516 8.68886 9.97032Z" stroke="white" stroke-width="1.5" stroke-linecap="round" stroke-linejoin="round"/>
<path d="M8.69189 9.97021H15.0099V11.8163" stroke="white" stroke-width="1.5" stroke-linecap="round" stroke-linejoin="round"/>
<path d="M12.1816 11.8165V9.97046" stroke="white" stroke-width="1.5" stroke-linecap="round" stroke-linejoin="round"/>
</svg>
