<svg width="21" height="23" viewBox="0 0 21 23" fill="none" xmlns="http://www.w3.org/2000/svg">
<path d="M11.9189 10.0049C12.1171 10.6149 12.6858 11.0283 13.3271 11.0283H16.2988L13.8945 12.7754C13.3757 13.1523 13.1584 13.8207 13.3564 14.4307L14.2754 17.2578L11.8701 15.5107C11.3838 15.1575 10.736 15.1354 10.2295 15.4443L10.1299 15.5107L7.72363 17.2578L8.64355 14.4307C8.84163 13.8207 8.62428 13.1523 8.10547 12.7754L5.70117 11.0283H8.67285C9.31421 11.0283 9.88286 10.6148 10.0811 10.0049L11 7.17676L11.9189 10.0049Z" stroke="white" stroke-width="1.5"/>
<path d="M7.94194 6.75L5 4.33996M11.1935 3.75V0.75M14.5726 6.75L17 4.33996" stroke="white" stroke-width="1.5" stroke-linecap="round"/>
<mask id="path-3-inside-1_496_718" fill="white">
<rect y="18.75" width="21" height="4" rx="1.46089"/>
</mask>
<rect y="18.75" width="21" height="4" rx="1.46089" stroke="white" stroke-width="3" mask="url(#path-3-inside-1_496_718)"/>
</svg>
