<svg width="22" height="22" viewBox="0 0 22 22" fill="none" xmlns="http://www.w3.org/2000/svg">
<path fill-rule="evenodd" clip-rule="evenodd" d="M17.8214 17.765C14.7652 20.8117 10.2398 21.4699 6.53642 19.7627C5.98971 19.5433 5.54148 19.366 5.11537 19.366C3.92849 19.373 2.45117 20.5201 1.68336 19.7557C0.915554 18.9903 2.06726 17.5165 2.06726 16.3263C2.06726 15.9015 1.89642 15.4627 1.67632 14.9167C-0.0371693 11.2259 0.624109 6.71346 3.68026 3.6678C7.5816 -0.222433 13.92 -0.222433 17.8214 3.6668C21.7297 7.56304 21.7227 13.8758 17.8214 17.765Z" stroke="#1E1E1E" stroke-width="1.5" stroke-linecap="round" stroke-linejoin="round"/>
<path d="M14.2455 11.2166H14.2545" stroke="#1E1E1E" stroke-width="2" stroke-linecap="round" stroke-linejoin="round"/>
<path d="M10.2455 11.2166H10.2545" stroke="#1E1E1E" stroke-width="2" stroke-linecap="round" stroke-linejoin="round"/>
<path d="M6.2455 11.2166H6.2545" stroke="#1E1E1E" stroke-width="2" stroke-linecap="round" stroke-linejoin="round"/>
</svg>
