<svg width="17" height="31" viewBox="0 0 17 31" fill="none" xmlns="http://www.w3.org/2000/svg">
<path d="M15 0C16.1046 0 17 0.895431 17 2V29C17 30.1046 16.1046 31 15 31H2C0.895431 31 0 30.1046 0 29V2C0 0.895431 0.895431 4.0266e-09 2 0H15ZM8.5 25.5C7.67157 25.5 7 26.1716 7 27C7 27.8284 7.67157 28.5 8.5 28.5C9.32843 28.5 10 27.8284 10 27C10 26.1716 9.32843 25.5 8.5 25.5ZM4 2C2.89543 2 2 2.89543 2 4V22C2 23.1046 2.89543 24 4 24H13C14.1046 24 15 23.1046 15 22V4C15 2.89543 14.1046 2 13 2H4Z" fill="white"/>
</svg>
