<svg width="22" height="22" viewBox="0 0 22 22" fill="none" xmlns="http://www.w3.org/2000/svg">
<path d="M16.6668 13.1513C16.4078 13.4146 16.2888 13.7955 16.3478 14.169L17.2367 19.331C17.3117 19.7685 17.1357 20.2112 16.7868 20.4641C16.4448 20.7264 15.9899 20.7578 15.6169 20.548L11.1885 18.1244C11.0345 18.0384 10.8636 17.9922 10.6886 17.987H10.4176C10.3236 18.0017 10.2316 18.0331 10.1476 18.0814L5.71823 20.5165C5.49926 20.6319 5.25129 20.6729 5.00832 20.6319C4.4164 20.5144 4.02145 19.9227 4.11844 19.2984L5.00832 14.1365C5.06731 13.7598 4.94833 13.3769 4.68936 13.1093L1.07883 9.4372C0.776872 9.12979 0.671886 8.66815 0.809868 8.25163C0.94385 7.83615 1.28581 7.53294 1.69875 7.46475L6.6681 6.70829C7.04605 6.66737 7.37801 6.42606 7.54799 6.06934L9.7377 1.35852C9.78969 1.25361 9.85669 1.15708 9.93768 1.07525L10.0277 1.0018C10.0747 0.947246 10.1287 0.902131 10.1886 0.86541L10.2976 0.823443L10.4676 0.75H10.8886C11.2645 0.790918 11.5955 1.02698 11.7684 1.37951L13.9871 6.06934C14.1471 6.41242 14.4581 6.65058 14.817 6.70829L19.7864 7.46475C20.2063 7.5277 20.5573 7.83196 20.6963 8.25163C20.8273 8.67235 20.7143 9.13399 20.4063 9.4372L16.6668 13.1513Z" stroke="#1E1E1E" stroke-width="1.5"/>
</svg>
